# xmcd
#
# Track frame offsets: 
#        150
#        19403
#        43823
#        58221
#        66364
#        77236
#        94648
#        113199
#        127109
#        140076
#        156276
#        162555
#        181521
#        204782
#        216219
#        238012
#        246734
#
# Disc length: 3534 seconds
#
# Revision: 0
# Processed by: cddbd v1.5.2PL0 Copyright (c) Steve Scherf et al.
# Submitted via: ExactAudioCopyFreeDBPlugin 1.0
#
DISCID=030dcc11
DTITLE=The Liberty Circus - The Liberty Circus
DYEAR=2017
DGENRE=Folk
TTITLE0=Outta Here (Malcolm Holcombe)
TTITLE1=Science for the People (RB Morris)
TTITLE2=I Lift my Lamp (Alan Kaufman)
TTITLE3=My Country (Al Maginnes)
TTITLE4=Always the Stranger (David Olney)
TTITLE5=Build Your Wall (Malcolm Holcombe)
TTITLE6=Hell on a Poor Boy (RB Morris)
TTITLE7=Who Are We? (Alan Kaufman)
TTITLE8=Rather Have a Home (Malcolm Holcombe)
TTITLE9=This Side or the Other (David Olney)
TTITLE10=The Deal (RB Morris)
TTITLE11=Nice Suit (Malcolm Holcombe)
TTITLE12=That's How Every Empire Falls (RB Morris)
TTITLE13=Let Us (Alan Kaufman)
TTITLE14=The New Damnation Alley (Malcolm Holcombe)
TTITLE15=Music From Small Towns (Al Maginnes)
TTITLE16=What's Wrong with Sean? (Alan Kaufman)
EXTD=
EXTT0=
EXTT1=
EXTT2=
EXTT3=
EXTT4=
EXTT5=
EXTT6=
EXTT7=
EXTT8=
EXTT9=
EXTT10=
EXTT11=
EXTT12=
EXTT13=
EXTT14=
EXTT15=
EXTT16=
PLAYORDER=
